<svg xmlns="http://www.w3.org/2000/svg" viewBox="0 0 50.23 50.23">
  <defs>
    <style>
      .cls-1 {
        fill: #9096a3;
      }
    </style>
  </defs>
  <g id="calendar" transform="translate(0 0)">
    <g id="Group_860" data-name="Group 860">
      <g id="Group_859" data-name="Group 859">
        <circle id="Ellipse_94" data-name="Ellipse 94" class="cls-1" cx="1.962" cy="1.962" r="1.962" transform="translate(35.907 18.64)"/>
        <path id="Path_696" data-name="Path 696" class="cls-1" d="M42.382,3.924H39.831V1.962a1.962,1.962,0,1,0-3.924,0V3.924H26.979V1.962a1.962,1.962,0,1,0-3.924,0V3.924h-8.83V1.962a1.962,1.962,0,1,0-3.924,0V3.924H7.848A7.857,7.857,0,0,0,0,11.773V42.382A7.857,7.857,0,0,0,7.848,50.23h15.01a1.962,1.962,0,1,0,0-3.924H7.848a3.929,3.929,0,0,1-3.924-3.924V11.773A3.929,3.929,0,0,1,7.848,7.848H10.3V9.811a1.962,1.962,0,0,0,3.924,0V7.848h8.83V9.811a1.962,1.962,0,1,0,3.924,0V7.848h8.928V9.811a1.962,1.962,0,1,0,3.924,0V7.848h2.551a3.929,3.929,0,0,1,3.924,3.924V22.957a1.962,1.962,0,1,0,3.924,0V11.773A7.857,7.857,0,0,0,42.382,3.924Z"/>
        <path id="Path_697" data-name="Path 697" class="cls-1" d="M281.871,270a11.871,11.871,0,1,0,11.871,11.871A11.884,11.884,0,0,0,281.871,270Zm0,19.817a7.947,7.947,0,1,1,7.947-7.947A7.956,7.956,0,0,1,281.871,289.817Z" transform="translate(-243.511 -243.511)"/>
        <path id="Path_698" data-name="Path 698" class="cls-1" d="M375.807,334.022h-.883v-2.06a1.962,1.962,0,1,0-3.924,0v4.022a1.962,1.962,0,0,0,1.962,1.962h2.845a1.962,1.962,0,1,0,0-3.924Z" transform="translate(-334.603 -297.625)"/>
        <circle id="Ellipse_95" data-name="Ellipse 95" class="cls-1" cx="1.962" cy="1.962" r="1.962" transform="translate(27.371 18.64)"/>
        <circle id="Ellipse_96" data-name="Ellipse 96" class="cls-1" cx="1.962" cy="1.962" r="1.962" transform="translate(18.836 27.175)"/>
        <circle id="Ellipse_97" data-name="Ellipse 97" class="cls-1" cx="1.962" cy="1.962" r="1.962" transform="translate(10.301 18.64)"/>
        <circle id="Ellipse_98" data-name="Ellipse 98" class="cls-1" cx="1.962" cy="1.962" r="1.962" transform="translate(10.301 27.175)"/>
        <circle id="Ellipse_99" data-name="Ellipse 99" class="cls-1" cx="1.962" cy="1.962" r="1.962" transform="translate(10.301 35.71)"/>
        <circle id="Ellipse_100" data-name="Ellipse 100" class="cls-1" cx="1.962" cy="1.962" r="1.962" transform="translate(18.836 35.71)"/>
        <circle id="Ellipse_101" data-name="Ellipse 101" class="cls-1" cx="1.962" cy="1.962" r="1.962" transform="translate(18.836 18.64)"/>
      </g>
    </g>
  </g>
</svg>
