<svg xmlns="http://www.w3.org/2000/svg" xmlns:xlink="http://www.w3.org/1999/xlink" viewBox="0 0 147.314 138.75">
  <defs>
    <style>
      .cls-1 {
        fill: #9097a3;
        opacity: 0.596;
      }

      .cls-2 {
        filter: url(#Path_361);
      }
    </style>
    <filter id="Path_361" x="0" y="0" width="147.314" height="138.75" filterUnits="userSpaceOnUse">
      <feOffset input="SourceAlpha"/>
      <feGaussianBlur stdDeviation="10" result="blur"/>
      <feFlood flood-opacity="0.149"/>
      <feComposite operator="in" in2="blur"/>
      <feComposite in="SourceGraphic"/>
    </filter>
  </defs>
  <g class="cls-2" transform="matrix(1, 0, 0, 1, 0, 0)">
    <path id="Path_361-2" data-name="Path 361" class="cls-1" d="M87.279,46.511a.471.471,0,0,0-.178-.219l-8.9-5.5a.468.468,0,0,0-.644.151l-.041.082-.987,2.755a.223.223,0,0,1-.206.151H50.185L61.069,15.682a1.462,1.462,0,0,0-2.138-1.768L35.01,28.759a.363.363,0,0,1-.315.027.338.338,0,0,1-.192-.452L45.469,0h-5.99L24.537,38.6a1.532,1.532,0,0,0,2.234,1.851l24-14.914a.276.276,0,0,1,.233-.027.265.265,0,0,1,.151.329L44.195,43.92H4.592A4.592,4.592,0,0,0,0,48.513a4.971,4.971,0,0,0,.11,1A28.016,28.016,0,0,0,6.306,61.8,71.377,71.377,0,0,0,19.534,74.119a21.771,21.771,0,0,0,9.459,4.455A8.753,8.753,0,0,0,38.9,73.132l9.13-23.619H74.174a.1.1,0,0,1,.069.014.22.22,0,0,1,.137.274l-.727,2.043a.463.463,0,0,0,.274.589.393.393,0,0,0,.329-.014L87.032,47.1A.444.444,0,0,0,87.279,46.511ZM33.694,71.117a3.176,3.176,0,0,1-3.605,1.974,16.337,16.337,0,0,1-7.169-3.413A65.747,65.747,0,0,1,10.541,58.163a22.425,22.425,0,0,1-4.222-7.2,1.175,1.175,0,0,1-.069-.37,1.1,1.1,0,0,1,1.1-1.1H42.015Z" transform="translate(30 30)"/>
  </g>
</svg>
