<svg xmlns="http://www.w3.org/2000/svg" viewBox="0 0 203.733 30.577">
  <defs>
    <style>
      .cls-1 {
        fill: #fff;
      }

      .cls-2 {
        fill: #9097a3;
      }
    </style>
  </defs>
  <g id="Group_385" data-name="Group 385" transform="translate(-158.427 -37.915)">
    <path id="Path_378" data-name="Path 378" class="cls-1" d="M-65.041-8.244a4.777,4.777,0,0,0,2.194,3.527,8.449,8.449,0,0,0,4.881,1.333,7.794,7.794,0,0,0,4.614-1.292,3.893,3.893,0,0,0,1.8-3.281,3.5,3.5,0,0,0-1.292-2.81A10.174,10.174,0,0,0-57-12.571l-3.835-.923q-7.957-1.928-7.957-7.978a7.578,7.578,0,0,1,3.015-6.214,12.014,12.014,0,0,1,7.752-2.4,11.713,11.713,0,0,1,7.629,2.4,7.891,7.891,0,0,1,3.056,6.214h-4.471a4.739,4.739,0,0,0-1.907-3.486,7.132,7.132,0,0,0-4.368-1.251,7.181,7.181,0,0,0-4.348,1.23,3.807,3.807,0,0,0-1.661,3.2,3.146,3.146,0,0,0,1.251,2.563,11.331,11.331,0,0,0,4.122,1.7l3.261.8q4.553,1.066,6.583,3.015a6.853,6.853,0,0,1,2.01,5.188,7.963,7.963,0,0,1-3.076,6.583Q-53.023.492-58.293.492a12.729,12.729,0,0,1-8-2.358,8.22,8.22,0,0,1-3.281-6.378ZM-31.564.267a9.976,9.976,0,0,1-7.69-3.076A11.768,11.768,0,0,1-42.1-11.136a11.762,11.762,0,0,1,2.871-8.326,9.917,9.917,0,0,1,7.67-3.1,9.95,9.95,0,0,1,7.67,3.076,11.843,11.843,0,0,1,2.851,8.347A11.768,11.768,0,0,1-23.894-2.81,9.91,9.91,0,0,1-31.564.267Zm0-3.691a5.325,5.325,0,0,0,4.43-2.03,9.056,9.056,0,0,0,1.579-5.681,9.056,9.056,0,0,0-1.579-5.681,5.3,5.3,0,0,0-4.43-2.051,5.3,5.3,0,0,0-4.43,2.051,9.025,9.025,0,0,0-1.6,5.681,9.025,9.025,0,0,0,1.6,5.681A5.325,5.325,0,0,0-31.564-3.425ZM4.026,0H-.219V-3.814H-.3Q-2.291.246-7.5.246a7.721,7.721,0,0,1-5.8-2.215A8.235,8.235,0,0,1-15.477-8V-22.271h4.45V-8.839A5.4,5.4,0,0,0-9.715-4.922,5,5,0,0,0-5.982-3.589a5.282,5.282,0,0,0,4.02-1.6A5.867,5.867,0,0,0-.425-9.434V-22.271h4.45Zm6.653-22.271h4.245v3.753h.082a5.132,5.132,0,0,1,1.969-2.912,5.55,5.55,0,0,1,3.4-1.066,5.366,5.366,0,0,1,1.477.164v4.163a5.477,5.477,0,0,0-1.948-.287,4.489,4.489,0,0,0-3.486,1.415,5.3,5.3,0,0,0-1.292,3.753V0h-4.45Zm30.073,7.608a4.79,4.79,0,0,0-1.661-2.953,5.53,5.53,0,0,0-3.65-1.189,5.215,5.215,0,0,0-4.327,2.071,8.88,8.88,0,0,0-1.641,5.6A8.768,8.768,0,0,0,31.133-5.5a5.254,5.254,0,0,0,4.327,2.03q4.512,0,5.332-4.02h4.245a8.119,8.119,0,0,1-2.974,5.619A10.164,10.164,0,0,1,35.44.267a9.909,9.909,0,0,1-7.608-3.056,11.791,11.791,0,0,1-2.871-8.347,11.83,11.83,0,0,1,2.851-8.306A9.786,9.786,0,0,1,35.4-22.559a9.919,9.919,0,0,1,6.788,2.338A8.111,8.111,0,0,1,45-14.663Zm18.916-4.266a5.358,5.358,0,0,0-3.979,1.6A6.307,6.307,0,0,0,53.9-13.166H65.2a6.076,6.076,0,0,0-1.6-4.184A5.216,5.216,0,0,0,59.667-18.929ZM69.429-6.521a7.258,7.258,0,0,1-3.138,4.9A10.824,10.824,0,0,1,59.873.267,9.944,9.944,0,0,1,52.2-2.789a11.691,11.691,0,0,1-2.81-8.265,12.074,12.074,0,0,1,2.81-8.367,9.555,9.555,0,0,1,7.485-3.138,9.322,9.322,0,0,1,7.28,2.974,11.465,11.465,0,0,1,2.687,8.019v1.559H53.884v.267a6.44,6.44,0,0,0,1.661,4.635,5.772,5.772,0,0,0,4.409,1.764A6.344,6.344,0,0,0,63.318-4.2a4.078,4.078,0,0,0,1.866-2.317Z" transform="translate(228 68)"/>
    <path id="Path_377" data-name="Path 377" class="cls-2" d="M-27.868-29.593V0h1.62V-11.936h8c5.742,0,9.516-3.466,9.516-8.818s-3.753-8.839-9.516-8.839Zm1.62,1.477h7.731c5,0,8.121,2.789,8.121,7.362,0,4.553-3.138,7.342-8.121,7.342h-7.731ZM-2.471,0h1.6V-13.72c0-4.163,2.174-7.137,5.64-7.137a5.423,5.423,0,0,1,2.256.451V-22a5.949,5.949,0,0,0-2.01-.369c-2.953,0-5.045,1.641-5.927,4.655H-.974v-4.368h-1.5ZM19.316.287C25.2.287,29.16-4.1,29.16-11.033c0-6.952-3.958-11.341-9.844-11.341-5.865,0-9.823,4.389-9.823,11.341C9.493-4.1,13.431.287,19.316.287Zm0-1.436c-4.963,0-8.224-3.794-8.224-9.885,0-6.111,3.261-9.885,8.224-9.885s8.224,3.773,8.224,9.885C27.54-4.963,24.279-1.148,19.316-1.148Z" transform="translate(333 68)"/>
  </g>
</svg>
