<svg xmlns="http://www.w3.org/2000/svg" viewBox="0 0 35.748 47">
  <defs>
    <style>
      .cls-1 {
        fill: #9197a4;
      }
    </style>
  </defs>
  <g id="man-user" transform="translate(-41.895)">
    <path id="Path_75" data-name="Path 75" class="cls-1" d="M114,22.986c5.226,0,9.462-5.146,9.462-11.493S122.069,0,114,0s-9.462,5.146-9.462,11.493S108.772,22.986,114,22.986Z" transform="translate(-54.228)"/>
    <path id="Path_76" data-name="Path 76" class="cls-1" d="M41.9,300.571c0-.387,0-.109,0,0Z" transform="translate(0 -260.036)"/>
    <path id="Path_77" data-name="Path 77" class="cls-1" d="M308.085,301.838c.005-.106,0-.735,0,0Z" transform="translate(-230.444 -261.001)"/>
    <path id="Path_78" data-name="Path 78" class="cls-1" d="M77.632,193.943c-.175-11.057-1.619-14.208-12.67-16.2a6.624,6.624,0,0,1-5.181,1.982A6.625,6.625,0,0,1,54.6,177.74c-10.93,1.973-12.462,5.077-12.664,15.843-.017.879-.024.925-.027.823,0,.191,0,.545,0,1.162,0,0,2.631,5.3,17.871,5.3s17.871-5.3,17.871-5.3c0-.4,0-.672,0-.859A7.118,7.118,0,0,1,77.632,193.943Z" transform="translate(-0.011 -153.872)"/>
  </g>
</svg>
